<svg xmlns="http://www.w3.org/2000/svg" width="716" height="716" xmlns:v="https://vecta.io/nano"><style><![CDATA[.B{fill:#1b1b1b}.C{fill:#1e1e1e}.D{fill:#1c1c1c}.E{fill:#f8f8f8}.F{fill:#111}.G{fill:#121212}.H{fill:#181818}.I{fill:#eaeaea}.J{fill:#141414}.K{fill:#171717}.L{fill:#0f0f0f}.M{fill:#131313}.N{fill:#e1e1e1}.O{fill:#292929}.P{fill:#e2e2e2}.Q{fill:#0d0d0d}.R{fill:#242424}.S{fill:#232323}.T{fill:#f9f9f9}.U{fill:#f7f7f7}.V{fill:#1d1d1d}.W{fill:#272727}.X{fill:#252525}.Y{fill:#151515}.Z{fill:#010101}.a{fill:#f6f6f6}.b{fill:#c7c7c7}.c{fill:#191919}.d{fill:#0e0e0e}.e{fill:#dedede}.f{fill:#2d2d2d}.g{fill:#c8c8c8}.h{fill:#d8d8d8}.i{fill:#2c2c2c}.j{fill:#313131}.k{fill:#161616}.l{fill:#212121}.m{fill:#3b3b3b}.n{fill:#d0d0d0}]]></style><path d="M0 0h716v716H0V0z" fill="#fefefe"/><path d="M355.987 69.87l10.358-.003c20.739-.029 41.48.237 62.155 2.009l2.998.254c8.316.757 16.334 2.158 24.502 3.871l7.5 1.313C497.96 83.733 530.186 94.767 559 115l7.355 4.773C568 121 568 121 569 123l3 1c2.32 3.48 2.226 4.759 2.148 8.855l-.056 3.529L574 140l-.069 3.299-.306 10.013-.131 3.719c-.284 7.328-.748 14.606-1.431 21.906-2.29 25.005-3.209 50.268-3.312 75.375l-.028 3.486c.03 8.513.726 16.906 1.477 25.381 1.009 11.684 1.536 23.384 2.062 35.098l.949 20.398.098 2.084 2.253 42.115 2.5 45.75.12 2.41 1.314 27.968.378 8.4.249 5.544 1.731 29.892L583 520l.231 3.918c.22 3.985.342 7.968.457 11.957l.206 3.677c.134 8.217.134 8.217-2.675 11.583-2.322 1.803-4.714 3.327-7.218 4.865-1.34 1.088-2.658 2.205-3.949 3.352l-1.881 1.641-1.857 1.633L559 569l-1.721 1.511C553.228 574 553.228 574 551 574v2c-1.512 1.33-3.087 2.59-4.687 3.813-2.904 2.253-5.688 4.428-8.187 7.125-2.127 2.064-3.22 2.74-6.125 3.063v2l-1.875.25c-2.305.544-2.305.544-3.187 2.75l-.937 2-3 1v2c-3.462 3-3.462 3-6 3v2c-5.476 5-5.476 5-8 5v2c-1.634 1.478-3.335 2.883-5.062 4.25-3.397 2.709-6.751 5.428-10 8.313C491 627 491 627 489 627l-1 3c-1.637 1.43-1.637 1.43-3.687 2.875-2.661 1.911-5.215 3.851-7.688 6C474 641 474 641 472 641v2c-3.915 1.305-7.685 1.234-11.771 1.312l-2.753.062-9.18.181-3.245.063-82.6.51c-4.829-.004-9.659-.002-14.488.002-15.899.013-31.797-.01-47.696-.095l-14.239-.043-15.949-.099-5.718-.02c-11.929.016-19.603-.889-28.85-9.076l-1.824-2.047c-4.035-4.258-8.375-7.744-13.083-11.212-3.512-2.605-6.539-5.428-9.604-8.538l-5.437-4.5-2.891-2.348-4.719-3.773c-1.352-1.085-2.659-2.225-3.953-3.379v-2l-5-2v-3h-3v-2l-2.105-.641c-3.76-1.766-6.254-4.235-9.207-7.109-3.697-3.522-7.342-6.89-11.5-9.875L160 571v-2l-2.211-.746c-3.091-1.389-4.961-2.99-7.414-5.316-4.593-4.262-9.349-8.251-14.223-12.187C134 549 134 549 133 548c-.267-3.24-.19-6.501-.187-9.75v-3.097c.067-9.375.702-18.676 1.407-28.021a518.27 518.27 0 0 0 1.217-24.069c.406-13.868 1.156-27.711 1.938-41.562l.198-3.517 1.999-34.806.928-16.052.186-3.218 2.099-40.622.099-2.155.855-19.001c.561-12.957 1.168-25.879 2.335-38.797.924-10.298 1.241-20.496 1.176-30.832l-.006-2.559c-.041-14.212-.711-28.306-1.736-42.48-.606-8.443-.913-16.889-1.166-25.349-.273-8.713-.881-17.376-1.726-26.053-2.618-27.3-2.618-27.3 1.618-33.262 2.569-2.537 5.506-4.196 8.739-5.763 2.181-1.112 4.113-2.399 6.117-3.803 6.907-4.815 14.094-9.04 21.598-12.855l1.96-1.003C186.416 97.53 189.833 96.474 194 96v-2c14.554-5.026 28.931-9.801 44-13l3.891-.973C254.441 76.85 267.122 74.366 280 73l2.367-.257c24.478-2.603 49.025-2.914 73.62-2.873z" fill="#070707"/><path d="M318.603 408.467c13.018 2.044 26.321 1.751 39.461 1.774l10.201.072c12.559.059 24.586-.72 36.996-2.627 5.672-.862 11.255-1.137 16.988-1.061l2.77-.035c9.247.039 17.059 2.075 24.48 7.66l3.031 2.203c3.085 3.183 3.592 5.266 4.469 9.547h2l4 14 .863 3.133c4.333 17.733 4.317 36.392 4.387 54.555l.016 2.165v6.159l-.007 3.577c-.65 8.57-3.861 13.88-10.259 19.411-9.303 5.291-24.163.586-33.937-1.375L410 525l-2.343-.404c-14.259-2.385-28.211-3.011-42.654-2.877l-10.186.047c-14.749.052-29.532.134-44.129 2.484l-2.439.372c-5.081.798-10.128 1.73-15.174 2.722l-3.614.702-6.997 1.416c-9.053 1.785-19.222 2.611-27.464-2.462-5.799-5.958-6.153-11.711-6.133-19.762l-.003-2.618.005-5.505-.006-8.242c-.026-57.686-.026-57.686 14.137-72.873 15.279-14.004 36.269-12.83 55.603-9.533z" fill="#060606"/><path d="M267.746 107.758l2.691 2.367 2.883 2.5L276 115l3.813 3.125c2.862 2.462 5.197 5.19 7.598 8.094 2.295 2.572 4.888 4.729 7.512 6.957 2.872 2.521 5.513 5.246 8.188 7.973 1.689 1.654 3.413 3.136 5.266 4.602 3.036 2.602 4.443 4.451 4.849 8.461l-.021 2.379.035 2.627-.023 5.43c-.019 4.8-.019 4.8 2.045 8.956 1.506 1.229 3.124 2.318 4.74 3.398a91.68 91.68 0 0 1 3.563 4c1.965 2.306 3.916 4.479 6.063 6.625 1.81 1.81 3.397 3.582 5 5.563 2.252 2.931 2.252 2.931 5.375 4.813v2l1.789.719c2.703 1.566 3.844 3.197 5.586 5.781l1.809 2.68c2.712 4.212 5.3 8.489 7.816 12.82 2.866-3.539 5.609-7.148 8.313-10.812C373.401 200.39 373.401 200.39 377 197h2v-2h2v-2l2.438-.75c2.734-.972 2.734-.972 3.375-3.375L387 187h2v-2l3.426-3.434c7.112-7.077 9.731-11.6 10.648-21.537.726-6.649 2.912-10.317 7.676-14.842 2.61-2.539 5.086-5.096 7.438-7.875 7.411-8.578 15.508-16.726 24.543-23.586a81.88 81.88 0 0 0 4.383-3.578l2.012-1.711 1.695-1.504c5.444-2.332 13.217.652 18.805 2.004l2.195.514c4.14.986 8.159 2.135 12.18 3.549-1.315 2.966-2.652 4.845-5.117 6.945l-1.84 1.574-1.918 1.605-1.895 1.629c-2.975 2.522-5.675 4.591-9.23 6.246v2c-1.645 1.691-1.645 1.691-3.812 3.563l-2.145 1.879C456 140 456 140 453 141v2l-5 3v-12l-16 1-.312 3.758c-.766 6.899-2.71 13.498-4.516 20.184-1.555 5.952-2.581 11.64-2.961 17.786C424 179 424 179 423 182c-1.828 1.035-1.828 1.035-4.25 2.063-9.994 4.739-18.708 12.439-26.75 19.938l-2.496 2.301c-8.637 8.252-15.406 16.996-15.805 29.305l-.012 6.582.013 3.503c.19 14.638 2.696 28.23 6.728 42.283l3.197 11.901.625 2.342c1.385 5.234 2.613 10.49 3.75 15.783 2.55-.622 5.044-1.311 7.563-2.062 7.732-1.904 15.441-2.03 22.438 2.063 5.501 4.148 10.433 8.089 11.469 15.234.069 7.712-.188 13.826-5.469 19.766-5.034 4.431-9.259 7.215-16 8 .403-3.946.993-6.984 2.625-10.625 1.455-3.572 1.805-4.849.375-8.375-2.223-2.812-3.311-3.899-6.91-4.426l-3.152.113-3.16.074c-2.862.136-2.862.136-5.777 1.238l-2 4c-8.886 9.472-20.124 18.966-33.559 19.426-9.412-1.164-19.337-7.241-25.441-14.426v-2l-1.805-.805c-2.241-1.22-3.564-2.493-5.32-4.32-2.977-2.617-5.035-3.358-9-3.5-3.158.231-5.059.706-8 2-2.854 3.996-2.283 7.869-1.875 12.625h2l2 9c-8.543-1.553-14.216-4.253-20-11-3.021-5.899-3.023-13.812-1.465-20.191 1.441-3.645 3.425-6.357 6.465-8.809h2v-2c6.917-4.34 12.912-4.898 21-4 2.549.774 4.612 1.781 7 3h4l.411-1.893 1.901-8.607.646-2.977c.94-4.208 1.853-8.283 3.514-12.27 2.514-6.317 3.415-13.157 4.652-19.816l.801-4.193c1.728-9.098 3.254-17.91 3.262-27.182l.037-2.303c.03-11.596-4.378-21.22-12.225-29.76-2.589-2.429-5.279-4.721-8-7l-2.613-2.203C308.934 190.27 308.934 190.27 296 183v-2h-4l-.228-1.706c-2.031-15.066-4.616-29.647-8.772-44.294l-15-2 2 15c-5.502-4.402-5.502-4.402-7.812-7.375-2.825-3.43-5.991-5.863-9.648-8.363L251 131v-2l-1.684-.75c-2.74-1.479-4.973-3.276-7.379-5.25-2.604-2.13-5.136-4.132-7.937-6v-2l-2-1c6.33-2.521 12.716-4.567 19.313-6.25l2.027-.53c9.783-2.421 9.783-2.421 14.406.538zm57.296 282.249c5.549 1.013 10.883 1.299 16.513 1.294l2.944.016 9.376-.005h3.244c13.881-.015 27.439-.532 41.217-2.231 21.94-2.673 45.088-3.751 63.664 9.919l1 3 1.875.938c2.561 1.281 3.62 2.654 5.125 5.063v2h2c7.823 14.064 11.322 27.981 13 44l.273 2.468c1.506 14.131 1.998 28.285 2.134 42.488l.085 5.522c.263 14.209-.953 26.459-9.965 38.167-1.796 1.594-3.183 1.967-5.527 2.355v2c-13.763 6.022-25.645 6.372-40.141 2.782-8.083-1.963-16.269-3.211-24.484-4.47l-2.124-.328L392 543l-3.711-.555c-5.343-.652-10.691-.607-16.067-.613l-3.408-.01-7.128-.007-10.743-.039c-21.052-.056-40.306 2.67-60.877 6.917-15.844 3.254-31.346 6.421-46.254-1.817-8.15-5.565-12.252-13.365-14.45-22.832-1.281-7.213-.898-14.686-.8-21.98l.019-2.787c.113-16.572 1.209-32.842 3.419-49.276l.34-2.745c2.222-17.751 7.617-36.171 21.66-48.255h2v-2c19.283-12.751 47.118-11.389 69.042-6.993zm-63.663 29.731c-14.071 19.769-12.566 50.837-12.564 73.787l-.039 8.292-.006 5.324-.022 2.478c.028 6.943 1.749 11.93 6.252 17.382 9.748 5.844 20.5 3.789 30.95 1.444 24.934-5.398 49.87-6.701 75.3-6.756l3.494-.008c17.481-.004 34.089.838 51.256 4.32l5.875 1.121 8.149 1.573c14.829 3.235 14.829 3.235 28.976-.695 5.169-4.415 7.382-8.395 9-15 .303-3.436.303-3.436.266-6.988l.009-1.975-.024-6.349-.011-2.213c-.143-23.762-1.661-46.743-9.239-69.475h-2l-.656-3.203c-1.204-4.18-3.312-5.98-6.844-8.547l-2.969-2.234c-7.49-4.699-15.634-5.5-24.281-5.391l-2.629-.035c-5.764.024-11.317.626-17.003 1.495-12.496 1.9-24.712 2.346-37.341 2.251l-10.021-.014c-14.776-.02-29.39-.728-44.021-2.875-18.047-2.497-36.756-1.757-49.856 12.291z" class="T"/><path d="M448 340c4.587 1.28 7.351 3.001 11 6l5.438 3.875c4.278 3.099 8.069 6.16 11.563 10.125v2l1.809.785c2.354 1.305 3.574 2.57 5.254 4.652 1.485 1.824 2.913 3.539 4.621 5.16C489 374 489 374 489 376l1.75.625c3.095 1.891 4.442 4.275 6.25 7.375v2h2c7.227 13.346 10.878 26.773 13.547 41.59a143.89 143.89 0 0 0 .956 4.667c1.761 7.98 2.37 16.056 3.06 24.181l.571 6.553.51 5.89c.252 3.147.252 3.147 1.357 6.119 5.748-6.949 11.37-13.942 16.629-21.27l1.621-2.23 1.453-2.031L540 448h2l2-4h2l.375-1.812C547 440 547 440 549 437h2l1-4h3l.871 12.995a194.49 194.49 0 0 0 .441 5.392c.324 5.269.287 8.646-3.25 12.738L549 468l-4.5 5-2.297 2.547c-4.105 4.571-8.173 9.158-12.016 13.953L528 492h-2l-.812 1.75C524 496 524 496 522.44 497.602c-2.129 3.546-1.771 7.012-1.662 11.019l.03 2.571.082 5.436.127 14.024.013 2.758c.012 6.725-.185 13.392-.841 20.09l-.213 2.322c-1.004 8.841-3.095 15.446-10.037 21.24l-1.643 1.467C504.323 582 504.323 582 502 582v2c-1.461 1.508-1.461 1.508-3.375 3.125l-1.898 1.633C495 590 495 590 493 590v2c-2.23 2.199-2.23 2.199-5.187 4.688l-2.918 2.512C482 601 482 601 479.137 600.77L477 600v-2l-1.73-.711c-2.799-1.59-4.468-3.489-6.582-5.914l-2.367-2.703L464 586l-2.07-2.297-1.867-2.078-1.652-1.836c-1.454-1.844-2.392-3.681-3.41-5.789l1.817-.212 8.246-1.038 2.857-.332c5.988-.793 10.03-2.104 15.08-5.418 1.652-.703 3.313-1.387 5-2v-2l2.188-2.125c9.738-9.518 13.667-23.775 13.958-37.074l.023-4.488.013-2.46.007-7.853-.001-2.715c-.02-14.188-.534-28.183-2.187-42.285l-.309-2.848c-1.19-10.912-2.843-21.664-5.129-32.402l-.585-2.776c-2.032-9.09-4.699-17.7-10.024-25.416C485 399 485 399 485 397h-2c-1.551-1.793-1.551-1.793-3.312-4.187C471.969 382.711 463.125 377.573 451 374l-3.125-1.125c-3.274-.996-6.482-1.468-9.875-1.875 1.047-2.444 1.912-3.923 3.938-5.687C447.886 358.643 448 348.515 448 340z" class="U"/><path d="M268 340l-.105 1.836c-.301 9.305 1.647 16.635 7.105 24.164v2l4 2v1l-3.227.41c-15.101 2.145-27.101 7.173-37.773 18.59l-1 2h-2l-.75 1.563c-.966 1.883-2.001 3.732-3.062 5.563L229 403l-1.23 2.184c-8.384 15.71-10.568 33.884-12.069 51.389-.381 4.377-.833 8.626-1.763 12.927-2.632 13.369-2.039 27.488-2.113 41.059l-.033 4.209c-.073 8.005.197 15.468 2.209 23.232l.859 3.574c1.724 6.027 3.336 10.627 7.871 15.059C224 558 224 558 225 561c10.824 9.425 22.213 11.7 36 13-1.427 2.928-2.869 5.514-5 8h-2l-.807 1.768c-2.055 3.846-5.076 6.844-8.005 10.044l-1.869 2.139c-1.698 1.853-3.31 3.537-5.318 5.049-2.809.082-2.809.082-5-1-1.714-1.618-3.371-3.297-5-5-2.372-1.86-4.779-3.663-7.207-5.449L219 588v-2l-1.797-.801c-2.283-1.243-3.677-2.503-5.453-4.387-3.081-3.227-6.352-5.922-9.953-8.551-5.263-6.625-5.448-16.146-5.984-24.262l-.263-3.463c-.459-6.873-.56-13.63-.354-20.51l.055-2.291a327.13 327.13 0 0 1 .438-11.137c.285-7.294-.121-11.897-5.216-17.471l-2.519-2.306L186 489v-2l-1.687-.687C178.67 483.11 173.933 477.134 170 472v-2l-1.797-.824c-3.764-2.009-6.216-4.376-8.203-8.176-.648-4.38-.335-8.598 0-13l.246-4.176L161 433h2c1.457 1.614 2.84 3.294 4.188 5 2.796 3.496 5.599 6.958 8.563 10.313 2.81 3.183 5.564 6.398 8.25 9.688l1.793 2.195 1.895 2.367 1.762 2.191c1.613 2.337 2.599 4.579 3.551 7.246h2c1.625 2.5 1.625 2.5 3 5l.875-8.25.276-2.59 1.322-13.207C202.377 432.449 205.619 413.29 213 394h2l.938-3.812c2.177-6.521 6.547-11.131 11.063-16.187l2.414-2.711 4.609-5.086c1.521-1.695 2.956-3.466 4.352-5.266 3.332-3.729 7.079-6.716 10.984-9.828a142.4 142.4 0 0 0 5.828-4.922c3.564-2.772 8.13-6.187 12.813-6.187z" class="E"/><path d="M168 173c4.478-.293 8.953-.469 13.438-.625l3.818-.254c9.282-.242 9.282-.242 13.522 3.009 2.262 2.525 4.238 5.124 6.222 7.87l2.24 2.201C209 187 209 187 209 189h2c1.508 1.898 1.508 1.898 3.125 4.375l1.633 2.461C217 198 217 198 217 200c3.135 1.858 5.375 2.201 9 2v-2h2l.938-2.437C230 195 230 195 231 194c.234-2.016.413-4.038.563-6.062l.254-3.348L232 182c10.327.908 23.511 2.603 32 9 3.117 4.439 3.906 9.708 4.678 14.979.437 2.739 1.226 5.32 2.072 7.958l.672 2.277c.553 1.86.553 1.86 1.578 3.785 2.025.652 2.025.652 4 1l.313-1.687C278 217 278 217 279.375 214.875c2.299-4.068 3.396-8.386 4.625-12.875 4.485 1.583 8.273 3.884 12.25 6.438l1.93 1.197c4.7 3.005 4.7 3.005 5.82 6.365l1.75.375c3.371.936 4.875 3.085 7.25 5.625l3.563 3.5A130.15 130.15 0 0 1 320 229l2.188 2.195c2.396 3.708 2.366 6.912 2.25 11.18l.021 2.211c-.06 5.156-1.165 8.802-3.459 13.414-10.911-3.353-20.885-8.798-31-14v-2l-1.801-.445c-6.059-1.64-11.131-4.015-16.57-7.125-3.449-1.876-6.916-3.169-10.629-4.43v-2l-2.012-.316c-4.448-1.017-8.606-2.758-12.842-4.424-4.663-1.798-9.276-3.131-14.146-4.26v-2l-2.125-.148-2.875-.227-2.812-.211C221 216 221 216 217.295 214.989c-4.075-1.034-8.005-1.264-12.197-1.219l-2.188.001-4.545.023-6.878.02c-7.22.018-14.325.167-21.486 1.186-1.207-14.027-2.299-27.917-2-42zm358.297-.391l3.292.03 4.161.11L547 173v42l-8-1c-18.078-2.239-33.944-.503-51.65 3.541C485 218 485 218 482 218v2l-2.973.883c-15.858 4.781-30.157 11.056-44.717 18.889-5.378 2.859-10.852 5.53-16.311 8.23l-6.375 3.237-2.187 1.115-4.125 2.122c-3.418 1.735-6.504 3.008-10.314 3.525-2.853-7.524-4.296-14.971-3-23 1.547-3.156 3.325-5.706 6-8h2l1-3c1.482-1.289 2.968-2.574 4.508-3.793 1.596-1.241 1.596-1.241 3.242-3.02C410 216 410 216 412 216v-2l3-1c1.016-.984 2.013-1.987 3-3a164.85 164.85 0 0 1 5-3.687l2.625-1.887C428 203 428 203 431 203l.734 1.758c2.041 4.756 4.022 9.187 7.266 13.242 2.121.952 2.121.952 4 1 1.739-2.608 2.421-4.034 3.184-6.949l.623-2.322.631-2.416 1.914-7.026c.425-1.5.812-3.012 1.154-4.533.867-3.173 1.505-5.149 4.384-6.907 2.411-.92 4.794-1.598 7.298-2.221l2.502-.707c2.429-.677 4.866-1.301 7.311-1.918l2.221-.606c3.674-.985 6.97-1.632 10.779-1.394l-.176 1.836c-.366 6.798.76 12.767 5.176 18.164 2.587.842 2.587.842 5 1l1.5-2.375c5.682-8.493 12.541-16.169 19.5-23.625l1.736-2.115c2.992-2.492 4.706-2.349 8.561-2.276z" class="T"/><path d="M414.91 573.473c2.202 1.688 2.202 1.688 5.34 3.238 4.571 2.573 8.038 6.127 11.688 9.852l2.121 2.146C447.678 602.703 447.678 602.703 449 610h2c1.461 2.647 2 3.894 2 7h-29l-1-3h-2l-.687-1.687c-1.686-2.971-3.843-4.958-6.312-7.312l-7.309-7.344c-13.979-13.796-28.942-20.868-48.941-20.969-6.118.068-11.823.841-17.75 2.313l-5.625 1.125-2.539.508L330 581v2c-6.625 2.875-6.625 2.875-10 4v2l-4.219 2.734c-3.304 2.348-5.978 5.357-8.781 8.266l-2.5 2.375c-2.938 3.085-5.426 6.403-7.949 9.832L295 614h-2l-1 3h-29c2.247-7.863 2.247-7.863 5-11.25l1.563-1.953L271 602l2-3h2l.801-1.762c2.098-3.916 5.204-6.987 8.199-10.238l1.664-1.828c27.526-28.961 96.887-36.396 129.246-11.699z" class="a"/><path d="M323 100c1.625 2.188 1.625 2.188 3 5l5 5 5.75 6.688 11.188 12.813C357 139.518 357 139.518 357 142c3.775-2.828 6.683-5.82 9.625-9.5l2.289-2.844a118.34 118.34 0 0 0 3.734-5L374 123h2l.668-1.637c2.12-3.762 5.207-6.674 8.175-9.774 2.658-2.821 4.705-5.358 6.47-8.839 3.356-3.434 4.615-3.216 9.313-3.312 6.234.309 12.293 1.172 18.375 2.563-1.357 3.004-2.898 5.185-5.16 7.574l-1.893 2.01-2.009 2.103-2.046 2.163c-4.314 4.545-8.704 8.998-13.169 13.395-2.085 2.122-3.897 4.407-5.723 6.754-4.431 4.551-4.431 4.551-6.772 6.399-2.904 2.461-4.941 4.345-5.809 8.135-.152 2.862-.144 5.665-.045 8.529.288 10.799.288 10.799-2.742 14.465L371 176l-2.5 2.5-2.5 2.5c-2.534 2.877-4.871 5.806-7 9h-2c-1.68-2.03-3.258-4.065-4.812-6.187-3.147-4.271-6.336-8.131-10.187-11.812-2.511-2.511-2.25-3.363-2.273-6.832l-.062-2.92-.055-6.086c-.106-5.879-.106-5.879-2.434-11.174L335 143l-1.746-1.625-1.691-1.375c-5.423-4.535-10.046-9.586-14.562-15l-2.312-2.754-2.437-2.934-2.297-2.762c-1.652-2.158-2.764-4.135-3.953-6.551a89.26 89.26 0 0 0-4-2c-2.25-2-2.25-2-4-4v-2c3.06-1.53 6.323-1.377 9.688-1.562l2.107-.131c9.01-.53 9.01-.53 13.205-.307z" class="U"/><path d="M193 234l.12 2.029.63 9.284.188 3.189c.685 9.27 2.69 17.964 8.313 25.561C205 277.827 205 277.827 205 280l3 1c1.605 1.559 1.605 1.559 3.188 3.438l1.605 1.871C214 288 214 288 214 290l2.063.75C219 292 219 292 222.438 294c5.593 3.242 11.143 4.514 17.563 5l2.219.199c10.061.462 19.991-2.149 29.781-4.199v-2l4.375-2.5 2.461-1.406C281 288 281 288 283 288v-2l5-4 1-2h2l.813-1.687c1.289-2.51 2.717-4.906 4.188-7.312 4.7.522 7.836 1.772 11.813 4.313l2.895 1.801c2.417 1.989 2.99 2.833 3.293 5.887l-1.434 1.215c-3.72 3.198-7.215 6.452-10.566 10.035-13.04 13.197-30.295 23.883-49.105 24.08-26.502-.161-44.929-6.213-63.989-25.158C187 291 187 291 187 289h-2l-1-5h-2l-2.875-6.875-.816-1.914c-3.765-9.184-4.605-17.974-4.434-27.836l.027-3.043L174 237c6.567-2.303 12.037-3.337 19-3z" class="E"/><path d="M524 233c6.69.54 12.635 1.887 19 4 .784 21.838-3.173 42.072-17.859 59.164-3.384 3.519-6.92 6.382-11.141 8.836h-2v2c-9.108 5.175-17.85 7.771-28 10l-1.927.533c-16.82 3.791-35.555-.143-50.011-8.947L430 307v-2l-4-1v-2l-1.707-.25c-4.945-1.617-8.596-6.225-12.293-9.75l-2.617-2.492c-6.241-6.081-6.241-6.081-7.383-9.508l5.625-3.937 3.164-2.215c3.217-1.851 5.548-2.501 9.211-2.848l.918 1.574c2.637 4.39 5.26 7.959 9.082 11.426l1.742 1.684c11.121 10.384 24.592 13.633 39.5 13.413 9.535-.377 19.124-1.757 26.918-7.761C500 290 500 290 503 290l1-3h2l1-4h2l.785-1.687c1.364-2.595 2.984-4.902 4.652-7.312 3.726-5.821 5.339-11.248 6.563-18l.582-3.039c1.19-6.625 1.916-13.251 2.418-19.961z" class="U"/><path d="M547 296h2c1.07 7.317 1.467 14.612 1.688 22l.24 3.734c.205 8.897.205 8.897-3.097 12.887-3.46 2.823-6.584 4.963-10.831 6.379l-1 3c-1.717 1.541-3.498 3.012-5.312 4.438-2.779 2.192-5.418 4.279-7.855 6.848C521 357 521 357 518 357c3.236 5.726 6.601 11.369 10 17l2.875-1.5C534 371 534 371 536 371v-2l4-1v-2l4-1v-2c5.412-4 5.412-4 8-4l.727 14.211c.154 3.774.427 7.507.797 11.266.661 8.477.861 14.949-4.721 21.766-2.283 2.47-4.659 4.813-7.114 7.112-2.534 2.469-4.634 5.173-6.814 7.958-2.26 2.853-3.826 4.655-6.875 6.688l-.104-2.703-.476-10.047-.188-4.326c-.334-8.684-1.022-15.649-6.232-22.924l-1.801-2.996-3.062-4.937C515 378 515 378 515 376h-2c-4-5.412-4-5.412-4-8h-2c-1.586-1.828-1.586-1.828-3.375-4.25-1.851-2.496-3.624-4.749-5.852-6.922C496 355 496 355 496 353l-3-1c-1.754-1.707-1.754-1.707-3.562-3.812l-1.816-2.082c-1.523-1.978-2.544-3.867-3.621-6.105l8.75-2.5 2.5-.723 2.422-.684 2.222-.635C502 335 502 335 506 335v-2l5.875-2.5 3.305-1.406C518 328 518 328 520 328v-2c1.455-1.103 2.967-2.132 4.5-3.125 9.548-6.549 18.752-15.632 22.5-26.875zm-379 0c2.577 2.283 3.026 3.096 4 6.625l1 3.375 3 1 4.188 5.188c3.902 4.861 7.58 8.472 12.813 11.813l3.145 2.031c7.107 4.504 14.035 8.378 22.23 10.531l2.824.742c3.92.973 7.851 1.854 11.801 2.695a385.64 385.64 0 0 1-10.812 12.25c-6.084 6.67-12.002 13.492-17.125 20.938L203 376h-2l-.937 2.875C199 382 199 382 198 384h-2l-.75 2.563C194 390 194 390 191.96 393.221c-2.205 3.805-2.562 7.34-2.569 11.681l-.05 2.19-.091 6.846-.09 4.674L189 430c-5.332-5.274-5.332-5.274-7.648-8.051l-1.348-1.606-1.379-1.656-2.895-3.445-1.409-1.677c-5-5.929-5-5.929-10.322-11.565-.241-1.949-.241-1.949-.227-4.358v-2.73l.031-2.952.009-3.018.062-9.568.027-6.477L164 357c3.515 1.658 5.919 3.63 8.75 6.313 3.152 2.909 6.187 5.433 9.875 7.625L186 373v2h3l.246-1.652c1.342-4.178 4.384-7.35 7.039-10.789 1.993-2.461 1.993-2.461 1.715-5.559-1.692-1.457-1.692-1.457-3.937-2.75A109.19 109.19 0 0 1 175 339l-2.301-1.441c-2.624-1.694-4.625-3.218-6.699-5.559-.444-2.561-.444-2.561-.324-5.449l.115-3.215L167 307.25l.289-3.305L168 296z" class="E"/><path d="M515.08 124.271c7.148 2.714 13.689 7.108 19.971 11.405 2.262 1.537 4.584 2.951 6.949 4.324-3.755 3.059-7.081 5-12 5v2c-19.728 8.404-41.034 11.977-62 16 1.564-3.323 3.214-5.562 6-8h2v-2c1.836-1.664 1.836-1.664 4.375-3.625l2.801-2.184L486 145l4.563-3.687L496 137l2.034-1.636 6.841-5.427 2.237-1.809 2.131-1.663 1.902-1.512C513 124 513 124 515.08 124.271zM204 124v2l1.785.848c2.049 1.066 3.8 2.208 5.648 3.586l1.947 1.45 2.057 1.553 2.139 1.61c6.687 5.078 13.086 10.448 19.424 15.952l2.477 2.102 2.148 1.836 1.789 1.527c1.763 1.707 3.164 3.54 4.586 5.535-5.955-.596-11.684-1.749-17.523-3.047-3.578-.78-7.168-1.475-10.766-2.156l-3.375-.647-6.716-1.26-3.155-.608-2.824-.529c-2.927-.834-5.077-2.131-7.64-3.752l-5.598-2.105c-4.862-1.81-9.623-3.879-14.402-5.895v-2h2v-2h2v-2c1.513-1.113 1.513-1.113 3.613-2.312l2.283-1.32 2.416-1.367 4.676-2.687 2.111-1.199C200.415 124 200.415 124 204 124z" class="a"/><path d="M359 587c4.767 4.302 4.767 4.302 6 8l4 2c1.75 1.5 1.75 1.5 3 3v2l1.707.691c2.92 1.667 4.75 3.736 6.98 6.246l2.387 2.652C385 614 385 614 386 617h-56c.989-4.946 1.218-5.72 4.527-8.988l2.15-2.139 2.26-2.186 2.248-2.244C346.719 596 346.719 596 349 596v-2c1.68-1.727 1.68-1.727 3.875-3.625l2.18-1.914C357 587 357 587 359 587zm48-105c5.908-.317 11.381.283 17.188 1.375l2.051.382c4.042.794 7.884 1.856 11.762 3.243 1.205 5.635 1.113 11.145 1.063 16.875l-.014 2.953L439 514l-13.25-1.937-3.801-.553-3.652-.537-3.364-.492c-2.361-.387-4.627-.85-6.933-1.481-.839-9.023-1.122-17.94-1-27zm-98 0l-1 27-11.798 2.136-4.013.728-5.771 1.042-3.507.635C280 514 280 514 277 514l-.125-10.687-.051-3.053-.02-2.959-.032-2.714c.254-2.899.905-4.998 2.227-7.587 4.818-2.309 10.312-2.829 15.563-3.625l2.537-.406c4.085-.634 7.725-.969 11.9-.969z" class="T"/><path d="M158 495h2l4.625 6.313 2.691 3.848 1.36 1.954c2.551 3.635 5.197 7.199 7.828 10.777 6.147 8.667 3.609 24.752 3.496 35.109-4.75-1.509-7.881-4.156-11.562-7.375l-1.709-1.461L162 540l-2.167-1.585c-2.821-3.716-2.331-7.235-2.224-11.774l.017-2.741.123-8.65.055-5.871L158 495z" class="a"/><path d="M557 494h1l.33 18.097.123 6.154.133 8.854.094 2.772c.003 6.221.003 6.221-1.985 8.846-2.13 1.85-3.792 3.276-6.695 3.276l-1 3-6 4.688-1.695 1.26C537.154 554 537.154 554 536 554c-.282-11.495.522-22.6 2-34h2l.77-2.176c1.324-3.039 2.928-5.364 4.918-8.012 3.428-4.604 6.729-9.272 9.965-14.012L557 494z" class="E"/><path d="M351 479v25l-11.062 1.5-3.446.475c-5.212.693-10.234 1.204-15.492 1.025l-.062-12.937-.025-3.732-.01-3.545-.016-3.285C321 481 321 481 322 480c2.797-.243 5.573-.425 8.375-.562l2.309-.131c6.129-.322 12.158-.307 18.316-.307z" class="U"/><path d="M365 479c7.107 0 13.71.132 20.688 1l8.313 1v26l-11.687-.937-3.659-.289-2.915-.239-2.968-.238c-2.611-.28-5.196-.782-7.771-1.297v-25z" fill="#fcfcfc"/><path d="M323 426l7.25-.125 2.2-.055c6.559-.053 11.772 1.051 18.55 2.18v25l-11.187.063-3.501.028-2.792.008-2.841.016C328 453 328 453 323 452v-26z" class="E"/><path d="M385.188 425.875L393 426v26c-9.411.768-18.558 1.096-28 1v-25c7.169-1.304 13.105-2.289 20.188-2.125z" fill="#fbfbfb"/><path d="M288 423l7.688-.062 2.186-.025c3.843-.018 7.393.153 11.127 1.088 1.07 9.018 1.102 17.937 1 27-19.951.524-19.951.524-27-3l.438-8.812.119-2.525.127-2.432.111-2.238C284 430 284 430 285 427h2l1-4z" class="E"/><path d="M415.328 422.902l2.422.01 2.5.025 2.547.014L429 423l1.438 4.188.809 2.355c1.37 4.464 1.892 8.538 1.879 13.207l.008 2.922C433 448 433 448 432 449c-8.665 1.693-17.189 2.29-26 2-.112-9.074.058-17.963 1-27 2.852-.814 5.366-1.119 8.328-1.098z" class="T"/><path d="M358 99.813l2.734-.037 2.641-.006 2.398-.012c2.464.269 4.092 1.013 6.227 2.243-2.772 3.77-5.8 6.65-9.414 9.57-1.835 1.536-1.835 1.536-3.586 4.43-3.404-1.135-4.243-2.172-6.5-4.875-2.503-2.979-2.503-2.979-5.219-5.758C346 104 346 104 346 102l-2-1c4.655-1.332 9.191-1.184 14-1.187z" fill="#f3f3f3"/><path d="M139 413h1l1 11 1-10h1v26h-2l.438 3.219.563 4.281.289 2.109c.942 7.269.917 14.152-.289 21.391l-3 1-1-3-1 11h-1c-.084-8.722.143-17.376.656-26.082l.202-3.576.642-11.154.434-7.627L139 413z" fill="#070707"/><path d="M326 384h8v1l18 1v1l-3.43.184-4.445.254-2.262.119c-4.063.159-4.063.159-7.863 1.443v2h45v1l-19.904.11-6.759.041-9.763.044-3.01.031c-6.719.001-12.998-.812-19.565-2.227v-3l6-2v-1z" fill="#2f2f2f"/><path d="M135 480h1c.107 9.396-.007 18.641-1 28-3-1-3-1-5-4h-1l-1-11h1l3-11 2 2 1-4z" fill="#ededed"/><path d="M168 173h28v1h-23l1 9c-1.395 2.141-1.395 2.141-3 4-.576 3.269-.576 3.269-.687 6.75l-.199 3.547L170 200h-1c-1.073-9.041-1.078-17.908-1-27z" class="b"/><path d="M179.063 360.625C182 361 182 361 184 363l1 5h7l-.937 1.813c-1.165 2.277-1.165 2.277-2.062 5.188h-3v-2l-2-.625c-4.116-1.887-7.459-4.581-11-7.375 2.617-3.953 2.617-3.953 6.063-4.375z" class="F"/><path d="M161 433h2l4.5 5.313 2.406 2.988L174 447l-1.875.313c-2.49.563-2.49.563-4.125 3.688h-2l-2-3-1.613-1.828c-1.791-2.804-1.692-4.626-1.574-7.922l.082-2.984L161 433z" fill="#eee"/><path d="M518 266l1 2c-3.156 6.086-7.03 11.323-12 16l-1 3c-1.562 1.688-1.562 1.688-3 3l-2-1 1-3h3l-.687-1.687c-.442-3.273.752-4.732 2.688-7.312h2v-3l-2-1c1-1 1-1 3.563-1.062L513 272l.25-1.875c.75-2.125.75-2.125 2.813-3.375L518 266z" class="G"/><path d="M521 498l2 2 2-1c.957 5.984.947 11.305.25 17.313l-.227 2.416-.258 2.322-.226 2.083c-.667 2.304-1.747 3.318-3.54 4.866l-.482-11.853-.25-6.018-.146-3.809-.143-3.523C520 500 520 500 521 498z" class="L"/><path d="M527 408h1l1 19 4.25-4.687 2.391-2.637a104.3 104.3 0 0 0 4.531-5.508L542 412h2l-1 6h-2l-1 3c-2.062.688-2.062.688-4 1l-1 5h-2l-1 2h-5v-21z" fill="#333"/><path d="M405 192l2 1c-1.463 3.8-3.281 5.026-6.812 6.938-4.072 2.333-7.228 4.412-10.187 8.063v3l-1.937.813c-2.394 1.074-2.394 1.074-3.062 4.188l-2 3-2-5 6.875-7 1.973-2.023 1.895-1.914 1.746-1.777C395 200 395 200 397 200l1-3c1.629-1.387 1.629-1.387 3.563-2.687l1.941-1.324L405 192z" fill="#262626"/><path d="M251 451h1c1.896 5.332 2.154 9.897 1.973 15.547-.096 2.592-.096 2.592 1.027 5.453-1.203 1.859-2.436 3.436-4 5l1 3-3 1 .438-11.062.119-3.146c.22-5.331.555-10.528 1.443-15.791z" fill="#0b0b0b"/><path d="M139 413h1l1 11 1-10h1v26h-2l-1 3c-1.099-3.297-1.114-5.73-1.098-9.199l.01-3.662.025-3.826.014-3.861L139 413z" class="M"/><path d="M363 131h3c-.597 3.342-1.736 5.464-4 8h-2l-1 3h-2l-3.125-4-1.633-2.25L351 134l1-2 3.375.5c3.345.546 3.345.546 5.625.5l2-2z" class="G"/><path d="M387 480c4.263-.071 7.879-.109 12 1l2-1v6h-3v10l-2-4-1 15h-1v-26h-7v-1z" fill="#3f3f3f"/><path d="M276.625 480.875L279 481l-2 2 5 3-3 2c-1.114 3.003-1.187 6.023-1.316 9.203l-.127 2.969-.119 3.078-.131 3.125L277 514h-1l-1-24-2 1-1-8c2-2 2-2 4.625-2.125z" class="c"/><path d="M343 96l2.141.492c7.849 1.394 16.01.554 23.859-.492v4l3 1-2.124-.016-9.564-.047-3.342-.025-3.232-.01-2.968-.016c-2.695.11-5.146.508-7.771 1.114v-6z" class="d"/><path d="M312 283l2 1-3 6h-2l-1 3h-3l-2 5h-3v3h-3l-1 3-5-1c2.446-2.548 5.01-4.89 7.688-7.187 4.668-4.044 8.993-8.403 13.313-12.812z" class="M"/><path d="M258 133l2 1v2h4l2-3h2l2 15c-5.603-4.482-5.603-4.482-8.125-7.562-1.866-2.264-3.772-4.39-5.875-6.437l2-1z" fill="#e6e6e6"/><path d="M430 417l-2 1 1 5h-14l3-1v-2l-2-2 4.75-1.062 2.672-.598c2.565-.338 4.149-.151 6.578.66z" fill="#090909"/><path d="M434 440h2v5h-2l.125 2.375C434 450 434 450 432 452c-2.926 2.138-4.212 1.98-7.937 1.625l-2.09-.332c-2.339-.347-4.612-.367-6.973-.293l3-1v-2l14-2 2-8z" fill="#1f1f1f"/><path d="M407 408c-1.746 3.376-3.814 4.57-7.25 5.875-4.629 1.417-7.316.918-11.75-.875v-3c6.378-1.173 12.503-2.295 19-2z" fill="#101010"/><path d="M145 184c3.8 3.633 5.105 6.868 5.25 12.125C150 200 150 200 148 203h-2c-1.254-3.763-1.107-7.272-1.062-11.187l.014-2.271L145 184z" fill="#050505"/><path d="M414 108l2 3c-2.625 4.875-2.625 4.875-6 6v2l-4 1v3l-4 2-2-2 2.047-2.012 2.703-2.676 2.672-2.637c2.366-2.456 4.497-4.977 6.578-7.676z" class="D"/><path d="M179 536h1v17c-4.777-1.911-6.627-3.338-10-7 3-1 3-1 6-1l.375-2.25c.58-2.551 1.362-4.477 2.625-6.75z" fill="#e4e4e4"/><path d="M443.188 132.875l3.293.055 2.52.07 1 3c2.015.733 2.015.733 4 1l1 4h-2v2l-5 3v-12l-14 1c3.527-2.351 5.029-2.214 9.188-2.125z" class="b"/><path d="M454 229l2 1-5 6-5-1-.562 1.875C444 239 444 239 440.563 240.375 437 241 437 241 434 239l8.313-4.437 2.381-1.275 2.295-1.221 2.111-1.127C451 230 451 230 454 229z" fill="#323232"/><path d="M339.813 504.938l3.52.027L346 505l2 4c-1.5 1.125-1.5 1.125-4 2-2.777-.424-5.296-1.189-8-2v-2h-8v-1c3.998-.956 7.708-1.104 11.813-1.062z" class="V"/><path d="M323 426h16v1h-10l-1 4-3 1-1 19 4 1h-5v-26z" class="e"/><path d="M410 352c3.688.498 5.605 1.101 8 4-3.08 3.672-5.248 4.568-10 5 .875-6.75.875-6.75 2-9z" class="N"/><path d="M254 582c1 3 1 3 1 7-1.723 1.457-1.723 1.457-4.062 2.813-4.139 2.538-7.175 5.293-10.332 8.965L239 602c-2.199-.309-2.199-.309-4-1l2.078-1.059c3.809-2.531 6.615-5.628 9.672-9.004l1.785-1.932c3.081-3.256 3.081-3.256 5.465-7.006z" class="f"/><path d="M538 315c0 3.459-.369 3.823-2.687 6.188-2.28 2.193-2.957 2.766-6.187 3.188L527 324l-2 4-5-1c4.247-3.451 8.611-6.733 13-10v2h2l1-3 2-1z" fill="#e0e0e0"/><path d="M372 101c.75 1.625.75 1.625 1 4l-4 6-2 4-2-3-4 4-2-1 3.375-4 1.898-2.25L366 107h2l.875-1.875C370 103 370 103 372 101z" fill="#222"/><path d="M440 209c1.765 3.088 2 4.233 2 8l2-3h2c-1.441 4.683-1.441 4.683-3.875 6.063C440 220 440 220 437.75 218.438c-2.17-3.023-2.081-4.796-1.75-8.437l3 2 1-3z" class="H"/><path d="M477 120l2 1-1.269 1.162-5.668 5.213-1.998 1.828-1.904 1.758-1.761 1.619c-1.512 1.389-1.512 1.389-2.399 3.42l-2.312 1.375c-2.759 1.522-2.759 1.522-4.875 3.813L455 143h-2c0-2 0-2 1.645-3.691l2.168-1.871 2.145-1.879C461 134 461 134 464 133v-2l5.375-4.5c3.94-3.108 3.94-3.108 7.625-6.5z" class="f"/><path d="M404 544l24 4-3 1-1 2v-2l-3.5.625c-4.697.575-8.027-.059-12.5-1.625l-4-4z" class="W"/><path d="M309 211v5l2 1-1 4-1.312-1.937c-1.6-2.33-1.6-2.33-4.687-3.062l-4-4-2-2c4.251-1.417 6.719-.193 11 1z" fill="#1f1f1f"/><path d="M574 368h1l1 31c-3.188-6.375-4.292-11.981-4-19h1l1-12z" class="X"/><path d="M394 312l6 1v3l-4.25 1.563-2.391.879c-2.55.604-3.913.406-6.359-.441l-1-5h3l1 2 2-2 2 1v-2z" class="D"/><path d="M401 160c2.549 3.824 2.596 5.454 2 10-2.008 3.67-4.095 7.372-8.203 8.727L393 179l1-4h2l1-3h2c2.6-3.9 2.151-7.474 2-12z" class="Y"/><path d="M364 504l9.625.438 2.738.119c4.619.219 9.088.544 13.637 1.443v1h-17v2h-4v-2l-5-2v-1z" class="O"/><path d="M526 464l2 1-9 11c-1.883-3.767-2.221-5.03-2-9l3 2 1-2h2l1-2 2-1z" class="H"/><path d="M481 593h2v2l4 2c-2.187 2.063-2.187 2.063-5 4-2.812-.25-2.812-.25-5-1v-5h3l1-2z" fill="#ececec"/><path d="M476 153h2c.082 3.044-.024 5.072-1 8-2.066.73-2.066.73-4.562 1.188l-2.504.48L468 163c1.564-3.323 3.214-5.562 6-8h2v-2z" class="I"/><path d="M142 555l7 1v2h2v2l4 1v2l2 1-3 2-4.312-3.812-2.426-2.145L142 555z" class="C"/><path d="M386 384h6v2c2.918 1.945 4.625 2.453 8 3v1l-14 1v-2l-2-1h2v-4z" class="B"/><path d="M197 238h1l1 13h-2l2 2c-.389 3.013-1.265 4.397-3 7v-6h-2v-6h2l-.035-1.934-.027-2.504-.035-2.496C196 239 196 239 197 238z" fill="#020202"/><path d="M212 81l1.793.219c4.09.48 8.081.914 12.207.781v3l-11 2c-3-4-3-4-3-6z" fill="#efefef"/><path d="M378 521c5.447-.097 10.639-.129 16 1v1l-6 1v3h-6l-.312-1.875c-.563-2.49-.563-2.49-3.687-4.125z" class="g"/><path d="M484 430h2l-.375 6.75-.211 3.797C485 444 485 444 483 448l-2-14h2l1-4z" class="Y"/><path d="M315 561l4 1-1 2h2v-2c1.938.375 1.938.375 4 1l1 2-12 3-1-3h2l1-4z" class="B"/><path d="M291 522l8 1 1 3c-3.674 1.176-7.169 1.074-11 1l-1-3h3v-2z" class="Y"/><path d="M376 426h17v5l-9-1v-2l-8-1v-1z" class="h"/><path d="M392 336l3 2-3 1-2 4-4 4-2-3 2.875-3.437 1.617-1.934C390 337 390 337 392 336z" class="P"/><path d="M519 152l-4 4v-2c-1.941.276-1.941.276-4 1l-2 3c-3.625.188-3.625.188-7 0l-1-3 7.875-2.062 2.262-.604c5.637-1.447 5.637-1.447 7.863-.334z" class="i"/><path d="M138 429h1l.148 2.125c.351 4.457.7 8.749 1.914 13.063 1.028 4.181 1.09 7.533.938 11.813-3.998-5.998-4.28-11.976-4.125-18.937l.027-2.361L138 429z" fill="#2b2b2b"/><path d="M572 124c2.421 3.632 2.21 5.383 2.125 9.688l-.055 3.574L574 140l-2 1v-13l-4-1v-2c2-1 2-1 4-1z" class="J"/><path d="M347 577l-1 2-3 1-1 2 2 1-14-1c4.991-3.327 10.921-5.588 17-5z" fill="#2a2a2a"/><path d="M204 574c4.179 2.564 7.125 5.019 10 9l-3 1v-2c-2.42-1.008-4.671-1.936-7.25-2.437L202 579l-1-3 3-2z" class="K"/><path d="M309 490h1c1.309 6.547 2.079 12.842-1 19h-1l-.062-8.375-.025-2.406c-.025-5.992-.025-5.992 1.088-8.219z" class="j"/><path d="M555.234 463.285L557 464l-4 7-2-2-2 2-3-1 3.25-3.562 1.828-2.004C553 463 553 463 555.234 463.285z" class="C"/><path d="M553 380c2.132 4.263 2.428 7.612 2.625 12.25l.117 2.258L556 400l-1-2h-2v-18z" class="L"/><path d="M523 95c4.498 1.687 8.729 3.817 13 6-2.647 1.461-3.894 2-7 2v-3l-5-1-1-4z" class="Q"/><path d="M302 604l2 3c-.75 1.938-.75 1.938-2 4l-2 .438-2 .563c-1.297 2.49-1.297 2.49-2 5l-4-1 1-2h2l.688-1.625c1.746-3.16 3.953-5.643 6.313-8.375z" class="V"/><path d="M194 600c3.536 1.911 5.79 3.626 8 7-4.75 1-4.75 1-7 1-1.625-1.5-1.625-1.5-3-3l1-2 1-3z" fill="#eee"/><path d="M472 410h4v4h2v2h2v3l-4 1-2-3.875-1.125-2.18C472 412 472 412 472 410z" class="G"/><path d="M369 619l-1 3h-16v-3l6.25-.562 3.516-.316c2.753-.103 4.654.017 7.234.879z" class="Z"/><path d="M420 246l2 1-2 2v3l-8 2-1-3 4.375-2.562 2.461-1.441L420 246z" class="R"/><path d="M410 216c0 3 0 3-1.193 4.534l-1.65 1.603-1.777 1.748-1.879 1.803-1.879 1.838L397 232l-2-1 3-4h2l1-3 4.5-3.793c1.617-1.301 3.073-2.701 4.5-4.207z" fill="#cfcfcf"/><path d="M530 488c.687 2.491 1 4.379 1 7l-1.937.375L527 496l-1 2-4-1 4-5h2l2-4z" class="i"/><path d="M272 411l2 1-4 4h-2v2l-2 1-2 3c-1 1-1 1-4 2 1.378-4.523 3.389-6.487 7.125-9.312l2.758-2.113L272 411z" fill="#383838"/><path d="M416 387h26v2l3 1c-2.552 1.276-3.329.81-6.062.125-7.549-1.645-15.242-1.786-22.937-2.125v-1z" class="B"/><path d="M275 315v2l2 2-3.437-.562L270 318l-1 1c-2.691-.176-5.329-.618-8-1v-1l5.313-1.562 2.988-.879C272 314 272 314 275 315z" class="k"/><path d="M550 542l2 1c-1.428 3.57-2.652 4.326-6 6l-4.25 3.625-2.141 1.914L538 556l-2-2 2.809-2.117 3.629-2.758 1.854-1.395c3.352-2.423 3.352-2.423 5.709-5.73z" fill="#303030"/><path d="M389 476l-2 4h-11v-2c4.504-1.757 8.176-2.193 13-2z" fill="#262626"/><path d="M416 418h8v2l-2 1 7 1v1h-14l3-1v-2l-2-2z" class="i"/><path d="M387 208l4 2c-1.312 1.5-1.312 1.5-3 3h-3l-1 6-3-3c1.443-3.366 3.333-5.51 6-8z" class="K"/><path d="M402 170l2 3-6 6 1 2h-2l-1 2-4 1c2.143-3.928 4.735-7.128 7.695-10.449 1.394-1.534 1.394-1.534 2.305-3.551z" fill="#d1d1d1"/><path d="M339 156h1c.162 9.256.162 9.256-.625 12.875-.473 2.678.203 3.866 1.625 6.125h-2c-1.84-2.76-3.105-4.879-2.789-8.262.519-2.277 1.122-4.501 1.789-6.738l1-4z" class="M"/><path d="M399 124c0 3.274-.158 5.843-1 9h-6c1.555-3.817 4.036-6.192 7-9z" class="R"/><path d="M184 313c3.502 1.401 4.465 2.623 6 6 1.541 1.709 1.541 1.709 3 3-3.396 0-4.066-.522-6.687-2.5l-1.887-1.406L183 317l2-1-1-3z" class="C"/><path d="M536 538h1l.367 2.336.508 3.039.492 3.023c.429 2.744.429 2.744 2.633 4.602l-5 3v-16z" fill="#d7d7d7"/><path d="M254 517c1.414 2.639 2.372 5.071 3 8l3-1 1 5c-5.75-1.625-5.75-1.625-8-5l1-7z" class="B"/><path d="M429 512l10 2 1 3-8 1 2-1-2-1v-2l-3-1v-1z" class="D"/><path d="M483 313h7v3l-13 2 1-2h2l1-2h2v-1z" class="I"/><path d="M380 290c2.003 3.004 2.493 4.71 3.125 8.188l.508 2.73L384 303c-2.076.553-3.844 1-6 1v-2h2v-12z" class="b"/><path d="M173 237h1l.125 8.75.051 2.5.02 2.422.032 2.222c-.259 2.405-1.035 4.019-2.227 6.106-1.283-3.85-1.066-6.947-1-11h1l1-11z" fill="#444"/><path d="M284 202c3.646 1.281 5.167 2.167 8 5l-9 1 1-6z" class="N"/><path d="M343 96l17 2v1l-2.449.402-3.238.535-3.199.527A250.98 250.98 0 0 0 343 102v-6z" class="B"/><path d="M496 618v2l2 1-7 5-2-2c1.475-3.403 2.856-6 7-6z" class="G"/><path d="M420 505v2l4 2-1 2-11-1c5-5 5-5 8-5z" class="P"/><path d="M547 358l1 3-4 2v2l-1.937.375L540 366l-1 2c.063-2.75.063-2.75 1-6 2.225-1.765 4.404-2.773 7-4z" class="J"/><path d="M540 266c2 3 2 3 1.813 5.375-.901 2.91-2.043 5.147-3.812 7.625h-2l1.438-4.812.809-2.707L540 266zm-86-37l2 1-5 6-4-1c1-3 1-3 3.938-4.75L454 229z" class="l"/><path d="M339 231l3 1 1 6h-2l-2 4c-1.627-3.253-1.115-6.392-1-10l1-1z" class="Z"/><path d="M432 73c5.789-.207 10.429.408 16 2v1l-10 1-1-3h-5v-1z" fill="#353535"/><path d="M251 451h1c2.56 7.68 2.56 7.68 1 12-1.562 1.813-1.562 1.813-3 3-.09-5.152.153-9.919 1-15z" class="O"/><path d="M236 429c2.603 2.712 2.995 3.891 3.188 7.75L239 440l-3-1-2 1c.875-7.625.875-7.625 2-11z" class="e"/><path d="M550 357l4 1-1 21h-1v-20l-3 1 1-3z" fill="#585858"/><path d="M301.25 296.313L303 297l-3 1v3h-3l-1 3-5-1c6.905-7.152 6.905-7.152 10.25-6.687z" fill="#202020"/><path d="M379 195l4 2-2 1c-4.207 2.804-7.515 6.359-11 10l-2-1 1.461-1.426 1.914-1.887 1.898-1.863c1.907-1.912 1.907-1.912 3.727-4.824h2v-2z" fill="#cfcfcf"/><path d="M387 136l2 1c-1.125 3.376-2.161 4.284-4.812 6.563l-2.082 1.816c-1.971 1.518-3.845 2.6-6.105 3.621l1.137-1.32L387 136z" fill="#303030"/><path d="M301 289h2c-.155 2.709-.482 4.466-2.402 6.445L296 299l-1-3 3-2 1-3h2v-2z" fill="#e3e3e3"/><path d="M472 216l5 1-1 2 2 2-3.875 1.563-2.18.879C470 224 470 224 468 223l4-1v-6z" fill="#cecece"/><path d="M424 202h2l1 3-8 5v-5l5-1v-2z" class="k"/><path d="M195 127l2 1c-4.105 3.972-7.03 6.709-13 7 3.284-3.678 6.628-5.814 11-8z" fill="#d9d9d9"/><path d="M464 585h8l-1 7-3.5-2.937-1.969-1.652L464 586v-1z" fill="#e5e5e5"/><path d="M296 548l-1 1 5 1v1l-15 1c3-4 3-4 4.938-4.812 2.266-.206 3.907.12 6.063.813z" fill="#202020"/><path d="M251 496h1l.188 8.875.076 2.551.029 2.441.048 2.253L252 514l-3 2v-6h1l1-14z" class="d"/><path d="M466 352c4.875 2.75 4.875 2.75 6 5l-1 2h-6l1-7z" class="I"/><path d="M406 145h2l1 3-1.375 1.313C405.8 151.108 405.8 151.108 404 154l-1-2h-2v-2h2l1-3h2v-2z" class="K"/><path d="M512 573l4 1-3 2-2 3h-2l-4 4-3-1 3.375-3 1.898-1.687C509 576 509 576 511 576l1-3z" class="O"/><path d="M557 569l2 1c-2.5 3.214-5.073 6.171-8 9l-2 2-1-4 3-1v-2c1.959-1.714 3.959-3.384 6-5z" fill="#d5d5d5"/><path d="M137 464h3v8l-2-3-1 11h-1l-.062-6.312-.035-3.551C136 467 136 467 137 464z" class="m"/><path d="M168 460v7c-3 0-3 0-4.687-1.375C162 464 162 464 162 462c3.75-2 3.75-2 6-2z" class="P"/><path d="M578 416h2l-2 16h-1l-.062-7.437-.025-2.143L577 417l1-1z" fill="#bebebe"/><path d="M525 395c2 2 2 2 2.195 4.82l-.07 3.305-.055 3.32L527 409l-3-1c-.201-3.716-.152-4.772 2-8h-2l1-5z" class="D"/><path d="M507 362c3.938 3.323 3.938 3.323 4.25 6.75L511 371l-2-1v-2h-2l-3-5 3-1z" fill="#e8e8e8"/><path d="M525 352c0 2.621-.313 4.509-1 7l-6 1v-3l5-3 2-2z" class="C"/><path d="M518 266l1 2c-3.75 5.875-3.75 5.875-6 7-.312-2.812-.312-2.812 0-6 2.5-1.875 2.5-1.875 5-3z" class="R"/><path d="M226 216l6 1 1 3h-2l1 4-6-1 4-1v-2l-4-1v-3z" class="X"/><path d="M293 181h3v2l2.875.875C302 185 302 185 304 187h-2l-1 2c-4.831-2.477-4.831-2.477-5.687-5.125L295 182l-2-1z" class="S"/><path d="M415 137l2 2-5 6-3-1c1.393-3.367 2.979-4.986 6-7z" class="B"/><path d="M346 104l6 5-1 2c-3.27-.564-4.826-1.5-7-4 1-2 1-2 2-3z" class="H"/><path d="M289 512c-1.125 2.5-1.125 2.5-3 5-3.187.313-3.187.313-6 0l2-2-2-2c3.073-.911 5.801-1.089 9-1z" fill="#1a1a1a"/><path d="M521 498l2 2 2-1c1.286 8.429 1.286 8.429 0 13h-1l-1-8h-3l1-6z" class="V"/><path d="M579 464h1v16h-3l2-16z" class="j"/><path d="M184 456l7 4v3l-4 1c-2.624-3.061-3-3.732-3-8z" class="M"/><path d="M214 363v3l-3 1c-.733 2.015-.733 2.015-1 4l-4 1c1.372-2.954 2.868-5.527 5-8l3-1z" class="W"/><path d="M474 358h5l.875 1.875c1.062 2.258 1.062 2.258 3.125 4.125l-2 2c-3.243-2.39-5.509-4.205-7-8z" class="R"/><path d="M189.188 344.375L191 345v4l-3 1-4-4c3-2 3-2 5.188-1.625z" fill="#eee"/><path d="M361 216c-.564 3.27-1.5 4.826-4 7-2-3-2-3-2-6 3-1 3-1 6-1z" class="F"/><path d="M404 154l2 4h2l-1 6-2-3v5l-2 1-.062-4.25-.035-2.391c.094-2.266.465-4.188 1.098-6.359z" class="h"/><path d="M445 112l2 1c-1.701 4.11-4.069 6.035-8 8l-1-3 7-6z" class="N"/><path d="M432 482l-2 1v2l-11-1v-1c4.409-1.102 8.484-1.077 13-1z" class="O"/><path d="M324 426h15v1h-10v2h-5v-3z" fill="#cdcdcd"/><path d="M537 418c0 3.38-.875 5.835-2 9h-2l-1 2-1-2c1.522-3.578 3.029-6.454 6-9z" class="S"/><path d="M570 264h2v7h-1l-1 9h-1l-.062-6.875-.035-3.867C569 266 569 266 570 264z" fill="#e3e3e3"/><path d="M184 234h9v5l-1-2h-8v-3z" fill="#e9e9e9"/><path d="M346 209c1.875.188 1.875.188 4 1 1.25 2.563 1.25 2.563 2 5l-3 1-2-3-2 1 1-5z" class="I"/><path d="M145 184c3 3 3 3 3.188 5.688L148 192h-2v8h-1v-16z" fill="#373737"/><path d="M496 128h5l1 5-5 3-1-3 4-1v-2l-4 1v-3z" fill="#101010"/><path d="M404 544l12 2v2c-2.605.947-4.307 1.302-6.891.176L404 545v-1z" class="C"/><path d="M213 468h1l.688 5.75.387 3.234c-.084 3.421-.765 4.57-3.074 7.016-.111-5.458.083-10.615 1-16z" fill="#545454"/><path d="M405 424c2.136 3.204 2.231 4.019 2.125 7.688l-.055 2.449L407 436l-1-3-3-1 1-3 1-5z" class="F"/><path d="M557 384h1l1 13-3 2 1-15z" class="Z"/><path d="M382 349v3l-3 3v3h-2v-2l-4 1c2.825-2.93 5.788-5.502 9-8z" fill="#333"/><path d="M172 336l8 6-4 2-2-3-3-1 1-4z" class="S"/><path d="M330 308l4 2v2l-3 2c-.733 3.066-.733 3.066-1 6l-4-1 2-1c.689-2.349.689-2.349 1.125-5.062l.508-2.785L330 308z" fill="#ccc"/><path d="M163 304l4 1v7h-4v-8z" class="L"/><path d="M524 242h2l-1 8h-2l-1 4 .438-4.875.246-2.742C523 244 523 244 524 242z" fill="#dcdcdc"/><path d="M347 123h2l3 9h-3c-1.858-3.135-2.201-5.375-2-9z" class="F"/><path d="M554 113l5 2-1 3c-2.062.688-2.062.688-4 1l-1-5 1-1z" class="L"/><path d="M370 598c4.248.472 6.2 2.967 9 6l-2 2c-3.243-2.39-5.509-4.205-7-8z" class="O"/><path d="M180 545h2v10l-4-1 2-1v-8z" fill="#383838"/><path d="M313 545l-1 2-2.687-.062c-3.244-.051-3.244-.051-6.062.688L301 548l-2-2 5.313-1.062 2.988-.598C310 544 310 544 313 545z" fill="#222"/><path d="M228 456h1v5h2v8l-1-3h-2v-10z" class="C"/><path d="M328 387l-1 4-7-1v-3c3.053-.981 4.947-.981 8 0z" class="J"/><path d="M148 312h1v10h2c-1 2-1 2-4 6l1-16z" class="Q"/><path d="M506 280h2c-1.005 4.164-1.772 7.053-5 10l-2-1 1-3h3l-.625-1.875L504 282l2-2z" class="j"/><path d="M434 240v2h-2l-1 2-3 3-3-1c5.846-6 5.846-6 9-6z" fill="#222"/><path d="M175 140l1 2c2.344.91 2.344.91 5.063 1.625l2.785.789L186 145l-3 2c-3.432-.84-5.485-1.485-8-4v-3z" fill="#282828"/><path d="M309 97l11 1c-4.423 3.317-5.719 3.305-11 3l3-2-3-2z" fill="#2a2a2a"/><path d="M504 398h4l1 6h-3l-2-6z" class="B"/><path d="M395 337h12l1 2-4-1v2l-10-1 1-2z" fill="#282828"/><path d="M178 307l3 1c.73 1.848.73 1.848 1.188 4.063l.48 2.223L183 316c-2.648-2.578-4.944-4.916-7-8l2-1z" class="B"/><path d="M300 96l1 2 3 1-1 2-5 1-2-4 4-2z" class="Y"/><path d="M535 584h2l-1 5-1.937.375L532 590l-1 2c.597-3.342 1.736-5.464 4-8z" class="C"/><path d="M255 548h5l-2 3c-7.75-.75-7.75-.75-10-3 2.695-1.348 4.084-.61 7 0z" class="e"/><path d="M322 480h10v1l-5 1v2h-4l-1-4z" fill="#cecece"/><path d="M302 452c-2.139 2.139-3.133 2.427-6 3v-1l-8-1v-1l4.75-.562 2.672-.316c2.462-.116 4.244.143 6.578.879z" class="L"/><path d="M490 407c2.565 2.565 2.54 4.477 3 8l-3 1c-.845-3.378-1.108-5.675 0-9z" fill="#2b2b2b"/><path d="M400 408c3.625-.187 3.625-.187 7 0l-2 3c-3.625.188-3.625.188-7 0l2-3z" class="B"/><path d="M198 376l2 1c-.875 4.75-.875 4.75-2 7l-3-1 1-4h2v-3z" fill="#e5e5e5"/><path d="M456 375c5.75 1.75 5.75 1.75 8 4-2.312.625-2.312.625-5 1l-3-2v-3z" class="K"/><path d="M386 346l4 2c-1.25 1.563-1.25 1.563-3 3-2.187-.312-2.187-.312-4-1l1-3 2-1z" class="B"/><path d="M521 321l3 1-2 4h-2v2h-2c.613-2.962 1.254-4.381 3-7z" class="G"/><path d="M218 313l8 2-2 3-8-2 2-1v-2z" class="J"/><path d="M303.438 312.813C307 313 307 313 309 315l-8 2v-2l-2-1c1-1 1-1 4.438-1.187z" class="Q"/><path d="M427 280l5 1 1 4h-3c-1.687-2.5-1.687-2.5-3-5z" class="c"/><path d="M405 192l2 1c-1.049 2.622-1.649 3.794-4.125 5.25L401 199l-1-3 5-4z" class="D"/><path d="M266 195h5l1 5-1-2h-3v2h-2v-5z" class="Q"/><path d="M304 187l3.375 1.813 1.898 1.02C311 191 311 191 313 194c-3.375-.687-3.375-.687-7-2-1.437-2.625-1.437-2.625-2-5z" class="f"/><path d="M485 179l-1.937.875c-2.215.953-2.215.953-3.062 3.125l-6 1 1-4c3.406-.778 6.508-1.1 10-1z" class="B"/><path d="M328 108c4.314.479 6.166 1.746 9 5h-2l-1 2c-4.875-4.75-4.875-4.75-6-7z" fill="#222"/><path d="M213 89c-2 3-2 3-4.375 3.813-2.958.211-4.086-.413-6.625-1.812l4.375-1.562 2.461-.879C211 88 211 88 213 89z" fill="#363636"/><path d="M387 611h5v2h-2v2l2 1-2 1-2-1-1-5z" class="Q"/><path d="M275.188 530.125C277 531 277 531 278 533l-9 1c3.422-4.033 3.422-4.033 6.188-3.875z" class="I"/><path d="M463 523v5l-3 2v2h-3c1.312-3.937 2.919-6.227 6-9z" fill="#dfdfdf"/><path d="M185 461l5 5-1 3h-2c-2-3-2-3-3-6l1-2z" class="P"/><path d="M240 363c-1.444 3.807-3.35 5.266-7 7l-2-1 2.813-3 1.582-1.687C237 363 237 363 240 363z" class="N"/><path d="M195 355l4 2c-.375 1.938-.375 1.938-1 4l-2 1-2-5 1-2z" class="S"/><path d="M450 336l3 1 1 3-1 2-4-2c0-3 0-3 1-4z" class="F"/><path d="M230 298l10 1v1h-5v2l-6-1 1-3z" class="P"/><path d="M293 276l3 1c-1 3-1 3-2.875 4.188C291 282 291 282 288 282l1-2h2l2-4z" class="n"/><path d="M425 205l2 1c-2.755 2.959-5.466 5.037-9 7l-2-2 9-6z" fill="#d2d2d2"/><path d="M318 168l2 3-2 3-1 2-3-4h2v-3l2-1z" class="D"/><path d="M453 106l8 1-1 3h-5l-2-4z" fill="#d5d5d5"/><path d="M480 631l1 4-6 5c.574-3.871 2.487-6.082 5-9z" class="K"/><path d="M464 588c1.875.313 1.875.313 4 1l2 3-4 1-2-5z" class="J"/><path d="M555 539l4 4c-1.812.688-1.812.688-4 1-1.75-1.437-1.75-1.437-3-3l3-2z" class="c"/><path d="M376 474h8l-2 3c-3.125.188-3.125.188-6 0v-3z" fill="#0b0b0b"/><path d="M169 470l5 5v1h-5c-1.125-3.75-1.125-3.75 0-6z" class="l"/><path d="M140 458l-1 9c-2.152-3.228-2.201-4.284-2-8 2-1 2-1 3-1z" fill="#030303"/><path d="M138 450c2.09 4.179 2.166 4.804 1 9h-2l1-9z" class="K"/><path d="M434 440h2v5h-2v5h-2l2-10z" class="X"/><path d="M161 433h2l1 5h-2v6h-1v-11z" fill="#e4e4e4"/><path d="M445 386l3 1c1.188 2.563 1.188 2.563 2 5l-6-2 1-4z" class="F"/><path d="M491 340v2l-5 2-2-4c3.133-1.044 3.99-.934 7 0z" fill="#e7e7e7"/><path d="M445 315l13 2v1h-12l-1-3z" fill="#4e4e4e"/><path d="M427 304l3 1v2l2 1-2 3-4-1 2-1-1-5z" class="H"/><path d="M370 251l3 1 1 8c-4-4.5-4-4.5-4-9z" class="I"/><path d="M319 225l4 2-1 5-5-5 2-2z" class="C"/><path d="M212 187l1 2h2l1 4h-3l-2-2c.375-2.125.375-2.125 1-4z" class="J"/><path d="M423 176c1 3 1 3 0 6l-5 1 2-1 .5-2.5.5-2.5 2-1z" class="n"/><path d="M390 133l2 3c-1.37 3.161-1.989 3.993-5 6l.938-3.937.527-2.215C389 134 389 134 390 133z" class="B"/><path d="M220 138c4.875 2.75 4.875 2.75 6 5l-2 2-4-4v-3z" fill="#f0f0f0"/><path d="M364 135l2 2-6 7-3-2 2.375-1.812c2.771-2.098 2.771-2.098 4.625-5.187z" fill="#d7d7d7"/><path d="M449 105l2 1c-1.37 3.161-1.989 3.993-5 6v-6l3-1z" class="D"/><path d="M523 95c2.915 1.074 4.778 1.778 7 4-2.375.625-2.375.625-5 1l-2-2v-3z" class="C"/><path d="M366 591h2c1.063 1.813 1.063 1.813 2 4l-1 3-4-3 1-4z" class="V"/><path d="M197 560c1.884 3.265 2.493 6.281 3 10l-4-2 1-8z" class="m"/><path d="M478 540l1 3-6 5-1-3 1.875-.812c2.425-1.143 2.425-1.143 4.125-4.187z" fill="#2e2e2e"/><path d="M557 494h1v5l-5 2c1.074-2.915 1.778-4.778 4-7z" fill="#ccc"/><path d="M162 464l5 5-2 2v-2l-4-2 1-3z" class="d"/><path d="M480 424c2 2 2 2 2.125 5.125L482 432h-2l-1-7 1-1z" class="k"/><path d="M250 379l2 1c-2.75 4.875-2.75 4.875-5 6l-1-4 4-3z" class="X"/><path d="M227 374l1 3-5 5-2-1 6-7z" class="h"/><path d="M547 296h2v7c-3 0-3 0-5-1l3-6z" class="g"/><path d="M419 299a56.54 56.54 0 0 1 7 4c-4.75 1.125-4.75 1.125-7 0v-4z" class="l"/><path d="M324 236h1v10h2l-2 4c-1.382-2.765-1.095-5.046-1.062-8.125l.027-3.32L324 236z" class="S"/><path d="M259 225l5 1v4h-3v-2l-3-1 1-2z" fill="#dadada"/><path d="M420 183l-2 5-5-1c4.75-4 4.75-4 7-4z" class="W"/><path d="M501 157v2h-7l-2-2c5.625-1.125 5.625-1.125 9 0z" class="H"/><path d="M410 101l9 1-2 4-1.25-1.375c-1.94-1.954-1.94-1.954-5.75-3.625z" fill="#c6c6c6"/><path d="M160 570l7 2 1 3c-3 0-3 0-5.687-2.5L160 570z" fill="#222"/><path d="M240 571l5 1 1 3-5 1-2-4 1-1z" fill="#f0f0f0"/><path d="M151 561h4v2l2 1-3 2-3-3v-2z" class="H"/><path d="M472 548v3l-3 1-1-2c-2.025-.652-2.025-.652-4-1 5.75-2.125 5.75-2.125 8-1z" fill="#2e2e2e"/><path d="M555 528h1v11l-3 1 2-12z" fill="#ededed"/><path d="M288 528l-1 3-9-1c3.991-1.996 5.7-2.195 10-2z" class="g"/><path d="M220 440h1v7h-4c.613-2.962 1.254-4.381 3-7z" class="Z"/><path d="M458 435l4 1-1 8h-1v-6h-2v-3z" class="G"/><path d="M493 416c2.565 2.565 2.54 4.477 3 8l-4-2 1-6z" class="R"/><path d="M442 387v2l3 1c-2.722 1.361-4.183.704-7.125.063l-2.758-.59L433 389v-1l9-1z" fill="#464646"/><path d="M527 370h4v4l-3 1-1-5z" class="M"/><path d="M253 345l3 1-5 5-3-1 5-5z" class="W"/><path d="M490 316v2c-3.576 1.238-6.337.749-10 0 3.402-2.094 6.053-2.179 10-2z" class="m"/><path d="M235 216h3l1 4-7-1 3-1v-2z" class="n"/><path d="M424 168l1 4h2v4l-3 1v-9z" fill="#353535"/><path d="M473 156v3l-1 1 2 2-6 1c1.293-2.884 2.659-4.872 5-7z" fill="#c4c4c4"/><path d="M242 158c1.875.313 1.875.313 4 1l2 3-6-1v-3z" fill="#e8e8e8"/><path d="M239 114v2h-3l-1 2-1-3-2-1c3.133-1.044 3.99-.934 7 0z" class="N"/></svg>